# xmcd
#
# Track frame offsets:
#	150
#	13568
#	28088
#	45902
#	60356
#	77144
#	86540
#	97002
#	108946
#	122414
#	140620
#	154696
#
# Disc length: 2384 seconds
# Revision: 0
# Processed by: cddbd v1.5.2PL0 Copyright (c) Steve Scherf et al.
# Submitted via: dBpowerAMP V12.0
#
DISCID=88094e0c
DTITLE=Commander Cody and His Lost Planet Airmen - Lost in Ozone [MCA} (tape)
DYEAR=1990
DGENRE=Country
TTITLE0=Back To Tennessee
TTITLE1=Wine Do Yer Stuff
TTITLE2=Seeds And Stems (Again)
TTITLE3=Daddy's Gonna Treat You Right
TTITLE4=Family Bible
TTITLE5=My Home In My Hand
TTITLE6=Lost In The Ozone
TTITLE7=Midnight Shift
TTITLE8=Hot Rod Lincoln
TTITLE9=What's The Matter Now?
TTITLE10=20 Flight Rock
TTITLE11=Beat Me Daddy, Eight To The Bar
EXTD=
EXTT0=
EXTT1=
EXTT2=
EXTT3=
EXTT4=
EXTT5=
EXTT6=
EXTT7=
EXTT8=
EXTT9=
EXTT10=
EXTT11=
PLAYORDER=
